<svg width="240" height="240" viewBox="0 0 240 240" fill="none" xmlns="http://www.w3.org/2000/svg">
<rect width="240" height="240" fill="#D9D9D9"/>
<path d="M63.3333 188C63.3333 188 52 188 52 176.667C52 165.333 63.3333 131.333 120 131.333C176.667 131.333 188 165.333 188 176.667C188 188 176.667 188 176.667 188H63.3333ZM120 120C129.017 120 137.665 116.418 144.042 110.042C150.418 103.665 154 95.0174 154 86C154 76.9826 150.418 68.3346 144.042 61.9584C137.665 55.5821 129.017 52 120 52C110.983 52 102.335 55.5821 95.9584 61.9584C89.5821 68.3346 86 76.9826 86 86C86 95.0174 89.5821 103.665 95.9584 110.042C102.335 116.418 110.983 120 120 120V120Z" fill="#0B2B40"/>
</svg>
