<svg width="48" height="48" viewBox="0 0 48 48" fill="none" xmlns="http://www.w3.org/2000/svg">
<path d="M7.26562 22.8656L24.975 7.49531C25.1109 7.37812 25.2844 7.3125 25.4672 7.3125H29.6156C29.9625 7.3125 30.1219 7.74375 29.8594 7.96875L13.4437 22.2188H40.875C41.0813 22.2188 41.25 22.3875 41.25 22.5938V25.4062C41.25 25.6125 41.0813 25.7812 40.875 25.7812H13.4484L29.8641 40.0312C30.1266 40.2609 29.9672 40.6875 29.6203 40.6875H25.3312C25.2422 40.6875 25.1531 40.6547 25.0875 40.5938L7.26562 25.1344C7.10335 24.9933 6.97324 24.819 6.88408 24.6233C6.79491 24.4276 6.74878 24.215 6.74878 24C6.74878 23.785 6.79491 23.5724 6.88408 23.3767C6.97324 23.181 7.10335 23.0067 7.26562 22.8656Z" fill="white"/>
</svg>
