<svg width="48" height="48" viewBox="0 0 48 48" fill="none" xmlns="http://www.w3.org/2000/svg">
<path d="M40.7344 22.8656L23.025 7.49531C22.8891 7.37812 22.7156 7.3125 22.5328 7.3125H18.3844C18.0375 7.3125 17.8781 7.74375 18.1406 7.96875L34.5563 22.2188H7.125C6.91875 22.2188 6.75 22.3875 6.75 22.5938V25.4062C6.75 25.6125 6.91875 25.7812 7.125 25.7812H34.5516L18.1359 40.0312C17.8734 40.2609 18.0328 40.6875 18.3797 40.6875H22.6688C22.7578 40.6875 22.8469 40.6547 22.9125 40.5938L40.7344 25.1344C40.8966 24.9933 41.0268 24.819 41.1159 24.6233C41.2051 24.4276 41.2512 24.215 41.2512 24C41.2512 23.785 41.2051 23.5724 41.1159 23.3767C41.0268 23.181 40.8966 23.0067 40.7344 22.8656Z" fill="white"/>
</svg>
