<svg width="45" height="32" viewBox="0 0 45 32" fill="none" xmlns="http://www.w3.org/2000/svg">
<path d="M41.6 0H3.2C2.35131 0 1.53737 0.337142 0.937258 0.937258C0.337142 1.53737 0 2.35131 0 3.2V28.8C0 29.6487 0.337142 30.4626 0.937258 31.0627C1.53737 31.6629 2.35131 32 3.2 32H41.6C42.4487 32 43.2626 31.6629 43.8627 31.0627C44.4629 30.4626 44.8 29.6487 44.8 28.8V3.2C44.8 2.35131 44.4629 1.53737 43.8627 0.937258C43.2626 0.337142 42.4487 0 41.6 0ZM38.08 3.2L22.4 14.048L6.72 3.2H38.08ZM3.2 28.8V4.656L21.488 17.312C21.7558 17.4978 22.074 17.5974 22.4 17.5974C22.726 17.5974 23.0442 17.4978 23.312 17.312L41.6 4.656V28.8H3.2Z" fill="#0B2B40"/>
</svg>
